<?xml version="1.0"?>
<svg xmlns="http://www.w3.org/2000/svg" xmlns:xlink="http://www.w3.org/1999/xlink" version="1.1" id="Capa_1" x="0px" y="0px" viewBox="0 0 512 512" style="enable-background:new 0 0 512 512;" xml:space="preserve" width="512px" height="512px"><g><g>
	<g>
		<path d="M376,30H166c-20.678,0-37.5,16.822-37.5,37.5v398.2c-8.713-3.107-14.984-11.44-15-21.2v-407    c0.02-12.391,10.12-22.48,22.5-22.5h210c4.33,0,8.53,1.229,12.16,3.56c1.21,0.79,2.62,1.2,4.05,1.2c2.57,0,4.93-1.29,6.32-3.44    c1.079-1.68,1.449-3.689,1.02-5.649c-0.42-1.96-1.58-3.63-3.27-4.72c0,0,0,0-0.011,0C360.229,2.06,353.229,0,346.01,0H136    c-10.02,0-19.44,3.899-26.52,10.979c-7.08,7.08-10.98,16.5-10.98,26.521v407c0,10.02,3.9,19.439,10.98,26.52    c5.435,5.435,12.248,8.995,19.653,10.357C132.371,498.781,147.671,512,166,512h210c20.678,0,37.5-16.822,37.5-37.5v-407    C413.5,46.822,396.678,30,376,30z M398.5,474.5c0,12.406-10.094,22.5-22.5,22.5H166c-12.407,0-22.5-10.094-22.5-22.5v-407    c0-12.406,10.093-22.5,22.5-22.5h210c12.406,0,22.5,10.094,22.5,22.5V474.5z" data-original="#000000" class="active-path" data-old_color="#000000" fill="#009688"/>
	</g>
</g><g>
	<g>
		<path d="M376,90c-12.406,0-22.5-10.094-22.5-22.5c0-4.143-3.357-7.5-7.5-7.5H196c-4.142,0-7.5,3.357-7.5,7.5    c0,12.406-10.093,22.5-22.5,22.5c-4.142,0-7.5,3.357-7.5,7.5v347c0,4.143,3.358,7.5,7.5,7.5c12.407,0,22.5,10.094,22.5,22.5    c0,4.143,3.358,7.5,7.5,7.5h150c4.143,0,7.5-3.357,7.5-7.5c0-12.406,10.094-22.5,22.5-22.5c4.143,0,7.5-3.357,7.5-7.5v-347    C383.5,93.357,380.143,90,376,90z M173.5,104.247c14.671-2.991,26.256-14.576,29.247-29.247h41.015L173.5,145.262V104.247z     M173.5,166.476L264.977,75h21.212L173.5,187.689V166.476z M173.5,208.903L307.403,75h21.211L173.5,230.115V208.903z     M173.5,251.329L341.847,82.982c2.13,4.678,5.193,8.845,8.95,12.262L173.5,272.542V251.329z M368.5,437.753    c-14.671,2.991-26.256,14.576-29.247,29.247H297.24l71.26-71.26V437.753z M368.5,374.525L276.025,467h-21.212L368.5,353.313    V374.525z M368.5,332.099L233.599,467h-21.212L368.5,310.888V332.099z M368.5,289.673L199.835,458.338    c-2.215-4.617-5.347-8.714-9.16-12.053L368.5,268.461V289.673z M368.5,247.246L177.077,438.67    c-1.169-0.362-2.362-0.669-3.577-0.917v-16.719l195-195V247.246z M368.5,204.819l-195,195v-21.212l195-195V204.819z     M368.5,162.394l-195,195v-21.212l195-195V162.394z M368.5,119.967l-195,195.001v-21.213l190.668-190.667    c1.409,0.47,2.855,0.858,4.332,1.159V119.967z" data-original="#000000" class="active-path" data-old_color="#000000" fill="#009688"/>
	</g>
</g></g> </svg>
